<svg width="24" height="25" viewBox="0 0 24 25" fill="none" xmlns="http://www.w3.org/2000/svg">
<g clip-path="url(#clip0_761_35)">
<path d="M13 5.5H21" stroke="#666666" stroke-width="1.5" stroke-linecap="round" stroke-linejoin="round"/>
<path d="M13 9.5H18" stroke="#666666" stroke-width="1.5" stroke-linecap="round" stroke-linejoin="round"/>
<path d="M13 15.5H21" stroke="#666666" stroke-width="1.5" stroke-linecap="round" stroke-linejoin="round"/>
<path d="M13 19.5H18" stroke="#666666" stroke-width="1.5" stroke-linecap="round" stroke-linejoin="round"/>
<path d="M3 5.5C3 5.23478 3.10536 4.98043 3.29289 4.79289C3.48043 4.60536 3.73478 4.5 4 4.5H8C8.26522 4.5 8.51957 4.60536 8.70711 4.79289C8.89464 4.98043 9 5.23478 9 5.5V9.5C9 9.76522 8.89464 10.0196 8.70711 10.2071C8.51957 10.3946 8.26522 10.5 8 10.5H4C3.73478 10.5 3.48043 10.3946 3.29289 10.2071C3.10536 10.0196 3 9.76522 3 9.5V5.5Z" stroke="#666666" stroke-width="1.5" stroke-linecap="round" stroke-linejoin="round"/>
<path d="M3 15.5C3 15.2348 3.10536 14.9804 3.29289 14.7929C3.48043 14.6054 3.73478 14.5 4 14.5H8C8.26522 14.5 8.51957 14.6054 8.70711 14.7929C8.89464 14.9804 9 15.2348 9 15.5V19.5C9 19.7652 8.89464 20.0196 8.70711 20.2071C8.51957 20.3946 8.26522 20.5 8 20.5H4C3.73478 20.5 3.48043 20.3946 3.29289 20.2071C3.10536 20.0196 3 19.7652 3 19.5V15.5Z" stroke="#666666" stroke-width="1.5" stroke-linecap="round" stroke-linejoin="round"/>
</g>
<defs>
<clipPath id="clip0_761_35">
<rect width="24" height="24" fill="white" transform="translate(0 0.5)"/>
</clipPath>
</defs>
</svg>
