<svg width="21" height="20" viewBox="0 0 21 20" fill="none" xmlns="http://www.w3.org/2000/svg">
<g clip-path="url(#clip0_894_1882)">
<path d="M8.00008 4.16667H6.33341C5.89139 4.16667 5.46746 4.34227 5.1549 4.65483C4.84234 4.96739 4.66675 5.39131 4.66675 5.83334V15.8333C4.66675 16.2754 4.84234 16.6993 5.1549 17.0118C5.46746 17.3244 5.89139 17.5 6.33341 17.5H14.6667C15.1088 17.5 15.5327 17.3244 15.8453 17.0118C16.1578 16.6993 16.3334 16.2754 16.3334 15.8333V5.83334C16.3334 5.39131 16.1578 4.96739 15.8453 4.65483C15.5327 4.34227 15.1088 4.16667 14.6667 4.16667H13.0001" stroke="#F8AA25" stroke-width="1.5" stroke-linecap="round" stroke-linejoin="round"/>
<path d="M8 4.16667C8 3.72464 8.1756 3.30072 8.48816 2.98816C8.80072 2.67559 9.22464 2.5 9.66667 2.5H11.3333C11.7754 2.5 12.1993 2.67559 12.5118 2.98816C12.8244 3.30072 13 3.72464 13 4.16667C13 4.60869 12.8244 5.03262 12.5118 5.34518C12.1993 5.65774 11.7754 5.83333 11.3333 5.83333H9.66667C9.22464 5.83333 8.80072 5.65774 8.48816 5.34518C8.1756 5.03262 8 4.60869 8 4.16667Z" stroke="#F8AA25" stroke-width="1.5" stroke-linecap="round" stroke-linejoin="round"/>
<path d="M8 10H8.00833" stroke="#F8AA25" stroke-width="1.5" stroke-linecap="round" stroke-linejoin="round"/>
<path d="M11.3333 10H12.9999" stroke="#F8AA25" stroke-width="1.5" stroke-linecap="round" stroke-linejoin="round"/>
<path d="M8 13.3333H8.00833" stroke="#F8AA25" stroke-width="1.5" stroke-linecap="round" stroke-linejoin="round"/>
<path d="M11.3333 13.3333H12.9999" stroke="#F8AA25" stroke-width="1.5" stroke-linecap="round" stroke-linejoin="round"/>
</g>
<defs>
<clipPath id="clip0_894_1882">
<rect width="20" height="20" fill="white" transform="translate(0.5)"/>
</clipPath>
</defs>
</svg>
