<svg width="21" height="20" viewBox="0 0 21 20" fill="none" xmlns="http://www.w3.org/2000/svg">
<g clip-path="url(#clip0_1084_4843)">
<path d="M3 10C3 10.9849 3.19399 11.9602 3.5709 12.8701C3.94781 13.7801 4.50026 14.6069 5.1967 15.3033C5.89314 15.9997 6.71993 16.5522 7.62987 16.9291C8.53982 17.306 9.51509 17.5 10.5 17.5C11.4849 17.5 12.4602 17.306 13.3701 16.9291C14.2801 16.5522 15.1069 15.9997 15.8033 15.3033C16.4997 14.6069 17.0522 13.7801 17.4291 12.8701C17.806 11.9602 18 10.9849 18 10C18 8.01088 17.2098 6.10322 15.8033 4.6967C14.3968 3.29018 12.4891 2.5 10.5 2.5C8.51088 2.5 6.60322 3.29018 5.1967 4.6967C3.79018 6.10322 3 8.01088 3 10Z" stroke="#F9A311" stroke-width="1.5" stroke-linecap="round" stroke-linejoin="round"/>
<path d="M10.5 5.83334V10L13 12.5" stroke="#F9A311" stroke-width="1.5" stroke-linecap="round" stroke-linejoin="round"/>
</g>
<defs>
<clipPath id="clip0_1084_4843">
<rect width="20" height="20" fill="white" transform="translate(0.5)"/>
</clipPath>
</defs>
</svg>
